<svg viewBox="0 0 436.245 436.245" xmlns="http://www.w3.org/2000/svg"><path class="fill" d="M386.09 67.657c22.465 22.988 33.959 53.29 33.959 84.114 0 30.302-11.494 60.604-34.482 84.114L217.861 403.069 50.155 235.363c-45.976-45.976-45.976-121.731 0-167.706 22.988-22.988 53.29-34.482 84.114-34.482 30.302 0 60.604 11.494 84.114 34.482 45.976-45.975 121.731-45.975 167.707 0z"></path><path class="stroke" d="M217.861 418.743c-4.18 0-7.837-1.567-10.971-4.702L39.184 246.335c-52.245-52.245-52.245-137.404 0-189.649 25.078-25.078 59.037-39.184 95.086-39.184 30.825 0 60.082 10.449 84.114 29.257 23.51-18.808 52.767-29.257 84.114-29.257 36.049 0 69.486 14.106 95.086 39.184 25.078 25.6 38.661 59.037 38.661 95.086 0 35.527-13.584 69.486-39.184 95.086L229.355 414.041c-3.657 3.134-7.314 4.702-11.494 4.702zM134.269 48.849c-27.69 0-53.812 10.449-73.143 29.78-40.229 40.229-40.229 105.535 0 145.763l156.735 156.735 156.735-156.212c19.331-19.853 29.78-45.453 29.78-73.143s-10.449-53.812-29.257-73.143c-19.331-19.331-44.931-29.78-72.62-29.78-27.69 0-53.29 10.449-72.62 29.78-6.269 6.269-15.673 6.269-21.943 0-20.377-19.331-46.499-29.78-73.667-29.78z"></path></svg>
