<svg viewBox="0 0 512.003 512.003" xmlns="http://www.w3.org/2000/svg"><path d="M459.366 200.975v275.14H52.637v-275.14H16.749v293.084c0 9.911 8.033 17.944 17.944 17.944H477.31c9.911 0 17.944-8.033 17.944-17.944V200.975h-35.888z"></path><path d="M488.77 187.17l-63.402-52.635-22.92 27.61 45.859 38.077-192.305 143.45L63.708 200.227l45.237-37.479-22.896-27.634-62.804 52.037a17.948 17.948 0 00.717 28.201L245.27 380.436a17.877 17.877 0 0010.73 3.565 17.91 17.91 0 0010.73-3.559L488.04 215.36a17.958 17.958 0 007.208-13.919 17.952 17.952 0 00-6.478-14.271zM267.45 4.13c-6.609-5.485-16.191-5.509-22.825-.06L178.232 58.5l22.753 27.753 54.956-45.051 54.998 45.589 22.902-27.634L267.45 4.13z"></path><path d="M413.31 53.835H98.693c-9.911 0-17.944 8.033-17.944 17.944v177.047h35.888V89.723h278.729v159.103h35.888V71.779c0-9.911-8.033-17.944-17.944-17.944z"></path><path d="M333.262 221.186l-65.196-59.215c-6.837-6.215-17.286-6.215-24.129 0l-65.196 59.215c-7.339 6.663-7.883 18.01-1.22 25.349a17.91 17.91 0 0013.29 5.88c4.301 0 8.619-1.537 12.058-4.659l53.132-48.257 53.138 48.257c7.327 6.657 18.686 6.113 25.343-1.22 6.663-7.34 6.119-18.687-1.22-25.35z"></path></svg>
