<?xml version="1.0" standalone="no"?>
<!DOCTYPE svg PUBLIC "-//W3C//DTD SVG 1.1//EN" "http://www.w3.org/Graphics/SVG/1.1/DTD/svg11.dtd" >
<svg xmlns="http://www.w3.org/2000/svg">
<metadata></metadata>
<defs>
<font id="square721_cn_btbold" horiz-adv-x="1024" >
<font-face units-per-em="2048" ascent="1638" descent="-410" />
<missing-glyph horiz-adv-x="512" />
<glyph horiz-adv-x="0" />
<glyph unicode="&#xd;" horiz-adv-x="512" />
<glyph unicode=" "  horiz-adv-x="512" />
<glyph unicode="&#x09;" horiz-adv-x="512" />
<glyph unicode="&#xa0;" horiz-adv-x="512" />
<glyph unicode="!" horiz-adv-x="588" d="M139 465v1020h310v-1020h-310zM139 0v328h310v-328h-310z" />
<glyph unicode="&#x22;" horiz-adv-x="678" d="M406 1438h192v-559h-192v559zM80 1438h192v-559h-192v559z" />
<glyph unicode="#" horiz-adv-x="1575" d="M709 848l-88 -244h251l86 244h-249zM709 1464h221l-146 -415h242l148 415h221l-148 -415h283l-74 -201h-280l-84 -242h290l-71 -200h-291l-148 -416h-221l148 416h-244l-149 -416h-220l146 416h-287l76 200h282l86 242h-299l74 201h297z" />
<glyph unicode="$" d="M582 623v-416q60 6 84 29t24 73v185q0 55 -25 85t-83 44zM454 930v360q-58 -5 -83 -29.5t-25 -76.5v-129q0 -55 26.5 -85.5t81.5 -39.5zM455 4h-19q-206 0 -287 76t-81 270v135h276v-159q0 -62 24.5 -88t85.5 -31l1 452q-218 48 -295.5 121t-77.5 228v135q0 187 83 265 t289 87l1 156h127v-156q220 -4 295 -71t75 -271v-104h-268v122q0 59 -23 85.5t-79 33.5v-397q224 -58 298 -132.5t74 -223.5v-189q0 -181 -87 -261.5t-285 -82.5v-176h-127v176z" />
<glyph unicode="%" horiz-adv-x="1792" d="M1729 295q0 -185 -65.5 -249t-254.5 -64t-254 63.5t-65 249.5v321q0 186 64.5 250t254.5 64t255 -64.5t65 -249.5v-321zM1499 313v285q0 63 -18 83.5t-72 20.5q-53 0 -70.5 -20t-17.5 -84v-285q0 -63 17.5 -83.5t70.5 -20.5q54 0 72 21t18 83zM469 885v286 q0 64 -17.5 84.5t-70.5 20.5t-70.5 -20.5t-17.5 -84.5v-286q0 -64 17.5 -84.5t70.5 -20.5t70.5 20.5t17.5 84.5zM700 868q0 -185 -65.5 -250t-253.5 -65t-254 64.5t-66 250.5v322q0 185 65 249t255 64t254.5 -64.5t64.5 -248.5v-322zM449 -18l710 1521h182l-708 -1521h-184z " />
<glyph unicode="&#x26;" horiz-adv-x="1147" d="M680 338l-207 293q-35 0 -55.5 -30.5t-20.5 -84.5v-129q0 -105 25 -127t123 -22q88 0 112.5 14.5t24.5 56.5q0 11 -0.5 17.5t-1.5 11.5zM926 -18l-62 81q-30 -41 -86.5 -61t-144.5 -20h-164q-218 0 -301.5 77t-83.5 277v178q0 165 58.5 246.5t181.5 89.5l-35 47 q-69 98 -95 163t-26 128q0 172 81 243.5t279 71.5q238 0 318 -61t80 -238v-114h-283v61q0 74 -17.5 95.5t-68.5 21.5q-46 0 -68 -19t-22 -57q0 -19 10 -43.5t31 -58.5l221 -357l-14 187h282v-527l156 -235z" />
<glyph unicode="'" horiz-adv-x="352" d="M80 1438h192v-559h-192v559z" />
<glyph unicode="(" horiz-adv-x="739" d="M498 449q0 -127 29.5 -174t109.5 -60v-233h-49q-232 0 -320 111.5t-88 430.5v434q0 319 88 431t320 112h49v-233q-80 -13 -109.5 -60t-29.5 -174v-585z" />
<glyph unicode=")" horiz-adv-x="739" d="M246 1032q0 129 -29.5 176t-107.5 60v233h49q231 0 318 -112t87 -431v-434q0 -318 -87 -430t-318 -112h-49v231q78 12 107.5 59t29.5 177v583z" />
<glyph unicode="*" horiz-adv-x="901" d="M451 907l129 88v144l-134 102l-127 -98v-150zM831 1165v-180h-227l141 -235l-190 -103l-104 225l-101 -225l-196 103l145 235h-227v180h227l-141 236l188 102l105 -227l102 227l197 -102l-146 -236h227z" />
<glyph unicode="+" horiz-adv-x="1706" d="M752 1221h202v-510h498v-199h-498v-512h-202v512h-498v199h498v510z" />
<glyph unicode="," horiz-adv-x="512" d="M225 0h-121v328h304v-353q0 -151 -74 -227t-225 -80v166q63 5 90.5 36t27.5 97q0 5 -1 16t-1 17z" />
<glyph unicode="-" horiz-adv-x="692" d="M76 408v256h540v-256h-540z" />
<glyph unicode="." horiz-adv-x="512" d="M104 0v328h304v-328h-304z" />
<glyph unicode="/" horiz-adv-x="559" d="M-80 -190l483 1693h193l-485 -1693h-191z" />
<glyph unicode="0" d="M426 1147v-811q0 -62 17.5 -83.5t68.5 -21.5t67.5 21t16.5 84v811q0 63 -16.5 83.5t-67.5 20.5t-68.5 -21.5t-17.5 -82.5zM938 399q0 -246 -86.5 -331.5t-339.5 -85.5t-339.5 85.5t-86.5 331.5v686q0 246 86.5 332t339.5 86t339.5 -86t86.5 -332v-686z" />
<glyph unicode="1" d="M455 0v1241q-51 -82 -107.5 -161.5t-118.5 -155.5l-186 178q90 99 168 194.5t145 188.5h430v-1485h-331z" />
<glyph unicode="2" d="M96 0v238q0 95 7.5 149.5t23.5 101.5q20 55 58 100t106 93q43 30 130.5 70t121.5 63q17 11 24.5 33t7.5 57v242q0 64 -13 84t-52 20t-52.5 -20t-13.5 -84v-201h-329v139q0 248 82.5 333t320.5 85q239 0 320.5 -84.5t81.5 -333.5v-186q0 -127 -44.5 -194.5t-162.5 -124.5 q-27 -13 -76 -36q-207 -95 -207 -216v-62h479v-266h-813z" />
<glyph unicode="3" d="M106 1143q0 211 81.5 285.5t320.5 74.5q240 0 320.5 -73.5t80.5 -286.5v-117q0 -117 -40.5 -170t-143.5 -72q110 -14 155.5 -73.5t45.5 -190.5v-180q0 -211 -84 -284.5t-334 -73.5q-251 0 -334.5 73.5t-83.5 284.5v158h324v-162q0 -61 18.5 -83t71.5 -22t70.5 21.5 t17.5 83.5v199q0 66 -26.5 87t-123.5 21h-123v244h115q88 0 117 25t29 110v125q0 62 -17.5 83t-66.5 21q-50 0 -67 -21.5t-17 -82.5v-94h-306v90z" />
<glyph unicode="4" d="M287 559h278v739zM565 0v307h-520v357l332 821h506v-926h88v-252h-88v-307h-318z" />
<glyph unicode="5" d="M922 340q0 -211 -82.5 -284.5t-327.5 -73.5q-248 0 -330 73.5t-82 284.5v121h316v-125q0 -64 17 -84.5t67 -20.5t68 22.5t18 82.5v369q0 62 -18.5 83t-71.5 21q-56 0 -74.5 -21t-18.5 -83v-19h-288v799h749v-256h-446v-273q46 50 101 72.5t130 22.5q158 0 215.5 -72.5 t57.5 -331.5v-307z" />
<glyph unicode="6" d="M430 606v-270q0 -62 17.5 -83.5t68.5 -21.5t67.5 19.5t16.5 85.5v270q0 64 -17 84.5t-67 20.5q-51 0 -68.5 -21.5t-17.5 -83.5zM90 1161q0 201 81.5 271.5t328.5 70.5q150 0 224 -16.5t118 -54.5q37 -33 52 -81t15 -175v-74h-307v61q0 62 -17 83.5t-69 21.5 q-51 0 -68.5 -21.5t-17.5 -83.5v-305q61 49 117 70.5t125 21.5q83 0 142 -25.5t93 -76.5q18 -28 26.5 -92.5t8.5 -171.5v-185q0 -246 -86.5 -331.5t-339.5 -85.5t-339.5 85.5t-86.5 331.5v762z" />
<glyph unicode="7" d="M213 0l291 1229h-410v256h742v-256l-287 -1229h-336z" />
<glyph unicode="8" d="M412 514v-176q0 -69 20 -93t80 -24t80 23.5t20 93.5v176q0 70 -20 93.5t-80 23.5t-80 -23.5t-20 -93.5zM416 1153v-172q0 -69 19 -91t77 -22q57 0 76.5 19t19.5 74v20v172q0 69 -19 91t-77 22q-57 0 -76.5 -19.5t-19.5 -72.5v-21zM733 772q120 -21 166.5 -86t46.5 -225 v-62q0 -247 -88 -332t-346 -85q-259 0 -347.5 85.5t-88.5 331.5v62q0 160 46.5 225t166.5 86q-103 20 -147 82.5t-44 194.5v45q0 240 84.5 324.5t329.5 84.5q244 0 328 -84t84 -325v-45q0 -132 -44 -194.5t-147 -82.5z" />
<glyph unicode="9" d="M592 938v209q0 63 -16.5 83.5t-67.5 20.5q-52 0 -69 -20t-17 -84v-209q0 -63 17.5 -83.5t68.5 -20.5t67.5 20.5t16.5 83.5zM934 324q0 -202 -81.5 -272t-330.5 -70q-163 0 -239 15.5t-121 53.5q-38 33 -54 80.5t-16 175.5v148h322v-133q0 -63 18 -84t72 -21t71 20t17 85 v368q-61 -50 -116.5 -71t-123.5 -21q-83 0 -142 26t-93 76q-19 30 -28 96t-9 169v120q0 246 86.5 332t339.5 86t340.5 -86t87.5 -332v-761z" />
<glyph unicode=":" horiz-adv-x="578" d="M137 721v328h303v-328h-303zM137 0v328h303v-328h-303z" />
<glyph unicode=";" horiz-adv-x="578" d="M258 0h-121v328h303v-353q0 -152 -74.5 -228t-223.5 -79v166q62 5 90 36t28 97q0 5 -1 16t-1 17zM137 721v328h303v-328h-303z" />
<glyph unicode="&#x3c;" horiz-adv-x="1706" d="M1442 1194v-219l-893 -365l893 -364v-219l-1178 485v199z" />
<glyph unicode="=" horiz-adv-x="1706" d="M254 496h1198v-199h-1198v199zM254 926h1198v-199h-1198v199z" />
<glyph unicode="&#x3e;" horiz-adv-x="1706" d="M264 1194l1178 -483v-199l-1178 -485v219l895 364l-895 365v219z" />
<glyph unicode="?" horiz-adv-x="985" d="M287 465v145q0 82 20 129t68 82l17 13q106 78 134 106q16 17 22.5 40.5t6.5 76.5v102q0 62 -17.5 83.5t-68.5 21.5q-50 0 -67 -21t-17 -84v-119h-315v45q0 247 84.5 332.5t330.5 85.5q235 0 322.5 -69t87.5 -254v-156q0 -119 -29.5 -177t-109.5 -112q-14 -9 -41 -26 q-107 -64 -107 -148v-96h-321zM289 0v328h319v-328h-319z" />
<glyph unicode="@" horiz-adv-x="2048" d="M1167 272q-55 -84 -127 -123.5t-170 -39.5q-158 0 -240.5 86t-82.5 254q0 239 139.5 401t343.5 162q80 0 139 -33t97 -98l53 98h178l-147 -598q-3 -11 -5 -22.5t-2 -18.5q0 -35 24 -52.5t71 -17.5q39 0 81.5 20t79.5 56q86 80 130.5 187t44.5 235q0 240 -185.5 394.5 t-478.5 154.5q-141 0 -262.5 -34t-220.5 -101q-170 -114 -261.5 -285t-91.5 -375q0 -307 207 -490.5t553 -183.5q162 0 316.5 49t287.5 142l82 -117q-153 -115 -324.5 -173t-357.5 -58q-192 0 -353 48.5t-286 143.5q-155 121 -232 279t-77 358q0 167 52.5 318.5t154.5 275.5 q148 181 356 274t463 93q169 0 317.5 -45.5t258.5 -128.5q135 -105 201.5 -239.5t66.5 -303.5q0 -165 -65.5 -304.5t-188.5 -238.5q-70 -56 -152.5 -85.5t-171.5 -29.5q-106 0 -159.5 42t-55.5 124zM1217 700q-13 81 -57.5 123.5t-117.5 42.5q-114 0 -198 -124t-84 -298 q0 -92 40.5 -140t117.5 -48q83 0 151.5 63t93.5 164z" />
<glyph unicode="A" horiz-adv-x="1063" d="M449 612h157l-76 701zM31 0l221 1485h553l227 -1485h-354l-41 365h-219l-41 -365h-346z" />
<glyph unicode="B" horiz-adv-x="1094" d="M451 877h96q64 0 85 22t21 84v133q0 62 -21 84.5t-85 22.5h-96v-346zM451 647v-387h104q64 0 85.5 22.5t21.5 84.5v172q0 62 -22 85t-85 23h-104zM1010 309q0 -178 -83.5 -243.5t-338.5 -65.5h-479v1485h462q255 0 339.5 -67t84.5 -244v-130q0 -123 -54 -185.5 t-181 -84.5q126 -6 188 -79.5t62 -217.5v-168z" />
<glyph unicode="C" horiz-adv-x="999" d="M616 983v150q0 63 -17 83.5t-69 20.5q-51 0 -67.5 -20t-16.5 -84v-783q0 -64 16.5 -84t67.5 -20q52 0 69 20.5t17 83.5v203h316v-154q0 -150 -15.5 -216.5t-52.5 -112.5q-39 -49 -100.5 -68.5t-224.5 -19.5q-190 0 -258 19.5t-113 68.5q-42 46 -60 113.5t-18 215.5v686 q0 148 17.5 215t60.5 113q46 50 121.5 70t249.5 20q149 0 216.5 -19.5t106.5 -68.5q38 -46 54 -114.5t16 -215.5v-102h-316z" />
<glyph unicode="D" horiz-adv-x="1085" d="M109 0v1485h438q264 0 356 -93.5t92 -367.5v-563q0 -274 -92 -367.5t-356 -93.5h-438zM639 365v753q0 61 -18 81t-74 20h-92v-955h92q55 0 73.5 20.5t18.5 80.5z" />
<glyph unicode="E" horiz-adv-x="848" d="M109 0v1485h653v-266h-307v-328h288v-256h-288v-369h336v-266h-682z" />
<glyph unicode="F" horiz-adv-x="815" d="M109 0v1485h651v-266h-305v-369h276v-266h-276v-584h-346z" />
<glyph unicode="G" horiz-adv-x="1067" d="M977 807v-408q0 -148 -17.5 -215.5t-58.5 -113.5q-44 -49 -110.5 -68.5t-251.5 -19.5q-190 0 -258 19.5t-113 68.5q-42 46 -60 113.5t-18 215.5v686q0 148 17.5 215t60.5 113q46 50 121 70t250 20q164 0 239.5 -20.5t120.5 -69.5q41 -45 58.5 -112t17.5 -216v-77h-330 v125q0 62 -20.5 83t-83.5 21q-64 0 -84.5 -21t-20.5 -83v-783q0 -62 20.5 -83t84.5 -21q63 0 83.5 21t20.5 83v191h-98v266h430z" />
<glyph unicode="H" horiz-adv-x="1090" d="M109 0v1485h346v-572h180v572h346v-1485h-346v647h-180v-647h-346z" />
<glyph unicode="I" horiz-adv-x="580" d="M461 0h-346v1485h346v-1485z" />
<glyph unicode="J" horiz-adv-x="887" d="M332 543v-244q0 -34 10.5 -45.5t40.5 -11.5q29 0 39 11t10 46v1186h348v-1112q0 -227 -82.5 -309t-300.5 -82q-210 0 -290 69.5t-80 263.5v228h305z" />
<glyph unicode="K" horiz-adv-x="1057" d="M109 0v1485h337v-641l226 641h352l-283 -699l328 -786h-358l-265 676v-676h-337z" />
<glyph unicode="L" horiz-adv-x="786" d="M109 0v1485h346v-1219h327v-266h-673z" />
<glyph unicode="M" horiz-adv-x="1626" d="M111 0v1485h501l199 -1172l209 1172h493v-1485h-313l21 1255l-230 -1255h-383l-223 1255l25 -1255h-299z" />
<glyph unicode="N" horiz-adv-x="1266" d="M109 0v1485h487l268 -1174l-20 1174h313v-1485h-485l-273 1206l23 -1206h-313z" />
<glyph unicode="O" horiz-adv-x="1075" d="M631 350v783q0 62 -18.5 83t-73.5 21q-56 0 -74.5 -21t-18.5 -83v-783q0 -63 18.5 -83.5t74.5 -20.5q55 0 73.5 20.5t18.5 83.5zM985 399q0 -153 -17 -218.5t-59 -110.5q-45 -49 -113 -68.5t-257 -19.5q-190 0 -258 19.5t-113 68.5q-42 46 -60 113.5t-18 215.5v686 q0 148 17.5 215t60.5 113q46 50 121.5 70t249.5 20q173 0 247.5 -20t120.5 -70q43 -46 60.5 -113t17.5 -215v-686z" />
<glyph unicode="P" horiz-adv-x="1034" d="M455 422v-422h-346v1485h348q319 0 422.5 -81.5t103.5 -299.5v-301q0 -214 -101 -297.5t-370 -83.5h-57zM635 801v315q0 62 -21 84.5t-82 22.5h-77v-529h77q61 0 82 22.5t21 84.5z" />
<glyph unicode="Q" horiz-adv-x="1075" d="M647 557v576q0 62 -20.5 83t-83.5 21q-64 0 -84.5 -21t-20.5 -83v-783q0 -62 20.5 -83t84.5 -21q56 0 77.5 15.5t24.5 55.5l-160 215l101 115zM985 399v-49q0 -77 -7 -121.5t-24 -83.5l78 -110l-119 -109l-69 99q-36 -24 -103.5 -33.5t-248.5 -9.5q-238 0 -320 83 t-82 334v686q0 148 17.5 215t60.5 113q46 50 121.5 70t249.5 20q173 0 247.5 -20t120.5 -70q43 -46 60.5 -113t17.5 -215v-686z" />
<glyph unicode="R" horiz-adv-x="1090" d="M539 1223h-84v-459h84q67 0 89.5 22.5t22.5 83.5v246q0 62 -22.5 84.5t-89.5 22.5zM647 375q0 77 -28.5 106t-106.5 29h-57v-510h-346v1485h360q320 0 423 -81t103 -300v-170q0 -129 -56 -196.5t-183 -90.5q118 -17 174.5 -80t56.5 -178v-389h-340v375z" />
<glyph unicode="S" horiz-adv-x="1020" d="M403 496v-144q0 -58 23 -82t78 -24q60 0 81 23t21 87v105q0 48 -6 71t-20 41q-34 41 -157 68q-56 12 -87 21q-144 41 -198 114.5t-54 231.5v137q0 200 77.5 279t268.5 79h102q120 0 197 -20.5t121 -65.5q35 -35 49 -89t14 -173v-115h-307v93q0 70 -18.5 93t-75.5 23 q-55 0 -74.5 -21.5t-19.5 -80.5v-96q0 -109 186 -156q53 -14 84 -23q143 -40 196.5 -112t53.5 -228v-200q0 -186 -88.5 -268t-288.5 -82h-92q-220 0 -302.5 75t-82.5 277v162h319z" />
<glyph unicode="T" horiz-adv-x="840" d="M246 0v1219h-234v266h813v-266h-233v-1219h-346z" />
<glyph unicode="U" horiz-adv-x="1067" d="M102 1485h347v-1131q0 -62 18 -83t74 -21q55 0 73.5 21t18.5 83v1131h332v-1006q0 -174 -18 -254.5t-60 -136.5q-45 -58 -122.5 -82t-232.5 -24q-158 0 -234 24t-120 82q-41 54 -58.5 133t-17.5 258v1006z" />
<glyph unicode="V" horiz-adv-x="1038" d="M240 0l-207 1485h356l127 -1301l131 1301h357l-209 -1485h-555z" />
<glyph unicode="W" horiz-adv-x="1669" d="M1065 1485l137 -1235l92 1235h336l-174 -1485h-487l-135 1251l-134 -1251h-487l-176 1485h336l92 -1235l137 1235h463z" />
<glyph unicode="X" horiz-adv-x="1010" d="M504 668l-125 -668h-344l188 784l-172 701h336l115 -608l125 608h331l-172 -701l189 -784h-346z" />
<glyph unicode="Y" horiz-adv-x="944" d="M301 0v481l-307 1004h350l143 -672l134 672h327l-301 -1004v-481h-346z" />
<glyph unicode="Z" horiz-adv-x="848" d="M43 0v266l391 953h-354v266h715v-236l-400 -983h400v-266h-752z" />
<glyph unicode="[" horiz-adv-x="739" d="M197 0v1485h440v-230h-137v-1028h137v-227h-440z" />
<glyph unicode="\" horiz-adv-x="559" d="M156 1503l483 -1693h-190l-484 1693h191z" />
<glyph unicode="]" horiz-adv-x="739" d="M541 1485v-1485h-441v227h138v1028h-138v230h441z" />
<glyph unicode="^" horiz-adv-x="2048" d="M897 1460h252l481 -561h-235l-371 371l-373 -371h-235z" />
<glyph unicode="_" d="M0 -279h1024v-204h-1024v204z" />
<glyph unicode="`" d="M219 1536h258l197 -371h-142z" />
<glyph unicode="a" horiz-adv-x="915" d="M516 279v112q0 34 -19.5 53t-54.5 19t-54 -19t-19 -53v-112q0 -35 19 -53.5t54 -18.5t54.5 18.5t19.5 53.5zM532 0v84q-34 -55 -86 -78.5t-139 -23.5q-132 0 -184.5 62t-52.5 222v127q0 131 60 193.5t187 62.5q55 0 106 -15.5t93 -45.5v155q0 64 -14.5 84.5t-59.5 20.5 q-43 0 -57 -20.5t-14 -84.5h-269v76q0 144 70 196t289 52q218 0 288 -52t70 -196v-819h-287z" />
<glyph unicode="b" horiz-adv-x="952" d="M403 729v-412q0 -64 15.5 -84t60.5 -20q44 0 59 20t15 84v412q0 64 -15 84.5t-59 20.5q-45 0 -60.5 -21t-15.5 -84zM391 0h-291v1511h303v-569q37 64 93.5 94.5t138.5 30.5q126 0 178.5 -76t52.5 -264v-405q0 -190 -51 -265t-174 -75q-81 0 -138.5 34.5t-111.5 116.5 v-133z" />
<glyph unicode="c" horiz-adv-x="877" d="M813 414v-107q0 -189 -71 -257t-273 -68q-234 0 -316.5 85.5t-82.5 325.5v260q0 241 83 327.5t316 86.5q202 0 273 -68t71 -258v-51h-285v39q0 63 -15 84t-58 21q-44 0 -59 -21t-15 -84v-412q0 -62 15 -83t59 -21q43 0 58 21t15 83v97h285z" />
<glyph unicode="d" horiz-adv-x="952" d="M854 1511v-1511h-291v133q-53 -82 -111 -116.5t-139 -34.5q-123 0 -175 75.5t-52 264.5v405q0 187 53.5 263.5t179.5 76.5q83 0 139 -30.5t93 -94.5v569h303zM399 729v-412q0 -64 15 -84t59 -20q46 0 62 20.5t16 83.5v412q0 63 -15.5 84t-60.5 21t-60.5 -21t-15.5 -84z " />
<glyph unicode="e" horiz-adv-x="934" d="M381 756v-101h192v101q0 66 -18 87t-78 21q-58 0 -77 -22t-19 -86zM70 653q0 242 82 328t315 86q232 0 314.5 -86t82.5 -328v-204h-483v-132q0 -64 18 -84t74 -20t74 21t18 83v23h299v-70q0 -165 -84.5 -226.5t-337.5 -61.5q-212 0 -292 87t-80 324v260z" />
<glyph unicode="f" horiz-adv-x="616" d="M141 0v819h-96v230h96v151q0 170 72 240.5t244 70.5q35 0 68.5 -2t66.5 -6v-223q-2 0 -7 1q-25 3 -36 3q-52 0 -78.5 -24t-26.5 -72v-139h148v-230h-148v-819h-303z" />
<glyph unicode="g" horiz-adv-x="952" d="M852 29q0 -239 -75 -326.5t-271 -87.5q-230 0 -309.5 62t-79.5 227v6h262q0 -44 18.5 -61t65.5 -17q51 0 68.5 20t17.5 85v153q-48 -49 -100 -70.5t-125 -21.5q-134 0 -187 73t-53 267v389q0 188 53 264t180 76q87 0 147 -35.5t99 -109.5v127h289v-1020zM549 328v401 q0 63 -15.5 84t-60.5 21t-60.5 -21t-15.5 -84v-401q0 -63 15.5 -84t60.5 -21q46 0 61 20t15 85z" />
<glyph unicode="h" horiz-adv-x="948" d="M98 0v1511h303v-569q39 64 95.5 94.5t138.5 30.5q123 0 172 -67.5t49 -251.5v-748h-303v731q0 56 -16.5 76t-59.5 20t-59.5 -20t-16.5 -76v-731h-303z" />
<glyph unicode="i" horiz-adv-x="494" d="M94 1270v241h303v-241h-303zM397 0h-303v1049h303v-1049z" />
<glyph unicode="j" horiz-adv-x="508" d="M104 1270v241h306v-241h-306zM410 1049v-1129q0 -171 -60.5 -238t-210.5 -67q-16 0 -75 4q-37 3 -57 4l-1 236q59 3 78.5 26.5t19.5 120.5v1043h306z" />
<glyph unicode="k" horiz-adv-x="872" d="M98 0v1511h295v-884l158 422h283l-168 -449l223 -600h-314l-182 551v-551h-295z" />
<glyph unicode="l" horiz-adv-x="502" d="M403 0h-305v1511h305v-1511z" />
<glyph unicode="m" horiz-adv-x="1395" d="M94 0v1049h281v-136q48 84 105.5 119t146.5 35q87 0 139.5 -37.5t64.5 -107.5q45 77 101.5 111t142.5 34q123 0 171 -66.5t48 -252.5v-748h-301v731q0 57 -15.5 76.5t-57.5 19.5t-58 -19t-16 -67v-10v-731h-303v731q0 57 -16 76.5t-58 19.5q-43 0 -59.5 -21t-16.5 -75 v-731h-299z" />
<glyph unicode="n" horiz-adv-x="944" d="M94 0v1049h283v-136q46 82 105.5 118t148.5 36q123 0 172 -67.5t49 -251.5v-748h-303v731q0 56 -16.5 76t-59.5 20t-59.5 -20t-16.5 -76v-731h-303z" />
<glyph unicode="o" horiz-adv-x="934" d="M381 729v-412q0 -62 17 -83t69 -21q50 0 67 21t17 83v412q0 63 -16.5 84t-67.5 21t-68.5 -21.5t-17.5 -83.5zM70 653q0 242 82 328t315 86q232 0 314.5 -86t82.5 -328v-260q0 -240 -82 -325.5t-315 -85.5t-315 85t-82 326v260z" />
<glyph unicode="p" horiz-adv-x="952" d="M403 729v-412q0 -64 15.5 -84t60.5 -20q44 0 59 20t15 84v412q0 64 -15 84.5t-59 20.5q-45 0 -60.5 -21t-15.5 -84zM100 -383v1432h289v-127q40 75 99 110t145 35q127 0 180 -76t53 -264v-405q0 -190 -51 -265t-174 -75q-84 0 -141 34.5t-97 108.5v-508h-303z" />
<glyph unicode="q" horiz-adv-x="952" d="M551 317v412q0 63 -15.5 84t-60.5 21t-60.5 -21t-15.5 -84v-412q0 -64 15 -84t59 -20q46 0 62 20.5t16 83.5zM551 125q-40 -74 -97 -108.5t-141 -34.5q-123 0 -175 75.5t-52 264.5v405q0 188 53 264t180 76q87 0 147 -35.5t99 -109.5v127h289v-1432h-303v508z" />
<glyph unicode="r" horiz-adv-x="795" d="M94 0v1049h283v-115q40 70 92 101.5t129 31.5q95 0 134.5 -48.5t39.5 -166.5v-231h-252v110q0 56 -13.5 76t-47.5 20q-35 0 -48.5 -19t-13.5 -77v-731h-303z" />
<glyph unicode="s" horiz-adv-x="862" d="M70 326h274q0 -84 17 -110t67 -26q42 0 61 18.5t19 57.5v66q0 70 -153 99q-57 10 -91 18q-118 27 -153 68t-35 136v123q0 155 69 223t226 68h139q148 0 207.5 -54.5t62.5 -196.5v-75h-268v58q0 40 -17 54.5t-63 14.5q-40 0 -62 -17t-22 -48v-58q0 -59 117 -82 q65 -13 107 -24q126 -22 174.5 -72.5t48.5 -158.5v-125q0 -171 -73.5 -236t-270.5 -65h-80q-172 0 -236.5 56.5t-64.5 207.5v80z" />
<glyph unicode="t" horiz-adv-x="649" d="M129 819h-92v230h92v278h305v-278h172v-230h-172v-489q0 -60 27.5 -87.5t87.5 -27.5q15 0 23 0.5t15 1.5l1 -225q-47 -7 -87.5 -11t-74.5 -4q-172 0 -234.5 63.5t-62.5 258.5v520z" />
<glyph unicode="u" horiz-adv-x="944" d="M852 1049v-1049h-285v133q-45 -81 -104.5 -116t-149.5 -35q-123 0 -172 67t-49 252v748h305v-732q0 -56 16 -76t58 -20q43 0 59.5 20.5t16.5 75.5v732h305z" />
<glyph unicode="v" horiz-adv-x="858" d="M184 0l-157 1049h299l98 -879l119 879h286l-170 -1049h-475z" />
<glyph unicode="w" horiz-adv-x="1460" d="M926 1049l108 -824l99 824h292l-159 -1049h-424l-113 838l-111 -838h-425l-160 1049h293l98 -824l104 824h398z" />
<glyph unicode="x" horiz-adv-x="840" d="M12 0l160 571l-127 478h305l76 -437l80 437h287l-125 -478l157 -571h-311l-92 471l-94 -471h-316z" />
<glyph unicode="y" horiz-adv-x="858" d="M172 0l-137 1049h303l94 -897l103 897h292l-145 -975q-42 -281 -114.5 -370t-225.5 -89q-36 0 -77 6.5t-91 20.5v213q25 -7 45 -10t35 -3q66 0 101.5 39t41.5 119h-225z" />
<glyph unicode="z" horiz-adv-x="735" d="M51 0v227l307 592h-282v230h592v-244l-306 -578h322v-227h-633z" />
<glyph unicode="{" d="M883 1477v-209q-9 0 -25 1t-22 1q-101 0 -136.5 -38.5t-35.5 -162.5v-240q0 -148 -45 -210t-162 -89q117 -27 162 -88t45 -209v-241q0 -123 35 -161t137 -38q6 0 22 1t25 1v-209q-14 0 -39 -1t-37 -1q-100 0 -167 12t-114 37q-57 34 -80.5 91.5t-23.5 199.5v252 q0 137 -51 194.5t-172 57.5q-6 0 -20 -1t-21 -1v209q7 0 21 -1t20 -1q120 0 171.5 58t51.5 196v250q0 143 23.5 201t80.5 92q47 25 114 37t167 12q12 0 37 -1t39 -1z" />
<glyph unicode="|" d="M410 1565h206v-2048h-206v2048z" />
<glyph unicode="}" d="M143 1477h68q110 0 177 -12t112 -38q57 -32 80.5 -91.5t23.5 -198.5v-252q0 -137 51 -194.5t172 -57.5q6 0 20 1t21 1v-209h-37q-125 0 -176 -56t-51 -194v-252q0 -143 -23.5 -201t-80.5 -90q-47 -25 -114 -37t-167 -12q-12 0 -37 1t-39 1v209q9 0 25 -1t22 -1 q101 0 136.5 38.5t35.5 160.5v239q0 150 45 211.5t162 87.5q-117 27 -162 89t-45 210v242q0 122 -35.5 160.5t-136.5 38.5q-6 0 -22 -1t-25 -1v209z" />
<glyph unicode="~" horiz-adv-x="1706" d="M1530 803v-221q-104 -71 -196.5 -104.5t-182.5 -33.5q-46 0 -92 8t-92 23q-24 8 -71 25q-219 75 -333 75q-85 0 -177.5 -37.5t-207.5 -119.5v221q107 72 204 107.5t183 35.5q117 0 291 -58q3 -1 4 -1q18 -6 55 -19q155 -55 240 -55t175 37t200 117z" />
<glyph unicode="&#xa0;" />
<glyph unicode="&#xa1;" horiz-adv-x="588" d="M449 1020v-1020h-310v1020h310zM449 1485v-328h-310v328h310z" />
<glyph unicode="&#xa2;" d="M422 387l174 428q-14 16 -30.5 22.5t-49.5 6.5q-56 0 -75 -22.5t-19 -86.5v-348zM670 690l-201 -475q6 -5 17 -7.5t42 -2.5q53 0 70.5 21.5t17.5 84.5v103h281v-107q0 -185 -72.5 -255t-259.5 -70q-49 0 -98 2t-96 6l-111 -258h-133l131 305q-66 40 -94.5 121.5 t-28.5 234.5v260q0 241 83 327.5t317 86.5q58 0 96.5 -2.5t64.5 -7.5l95 215h131l-117 -273q40 -32 58 -92.5t18 -165.5v-51h-211z" />
<glyph unicode="&#xa3;" d="M76 0v266q87 0 118 31t31 119v131h-149v246h141q-9 138 -13.5 230t-4.5 144q0 174 93 255t292 81q202 0 295.5 -74t93.5 -233v-129h-303v100q0 56 -15 75.5t-53 19.5q-43 0 -60.5 -22t-17.5 -77q0 -14 7 -137t12 -233h256v-246l-244 -1q1 -12 1.5 -27t0.5 -44 q0 -65 -10 -116t-31 -93h457v-266h-897z" />
<glyph unicode="&#xa4;" horiz-adv-x="1241" d="M623 1161q-113 0 -195 -82t-82 -194q0 -114 81 -194.5t196 -80.5q113 0 194.5 80.5t81.5 194.5q0 112 -81.5 194t-194.5 82zM172 1438l205 -203q54 39 114 58.5t130 19.5t131.5 -19.5t115.5 -58.5l203 203l105 -107l-203 -205q38 -53 57 -113.5t19 -127.5t-19 -127 t-57 -115l203 -205l-105 -104l-203 203q-54 -40 -115 -59t-130 -19q-72 0 -132.5 19t-113.5 59l-205 -203l-104 104l202 205q-38 54 -56.5 113.5t-18.5 128.5q0 67 18.5 127.5t56.5 113.5l-202 205z" />
<glyph unicode="&#xa5;" d="M354 0v481l-24 74h-310v104h277l-68 213h-209v105h177l-164 508h332l161 -754l154 754h309l-162 -508h179v-105h-213l-68 -213h281v-104h-316l-20 -74v-481h-316z" />
<glyph unicode="&#xa6;" d="M410 408h206v-758h-206v758zM410 1432h206v-758h-206v758z" />
<glyph unicode="&#xa7;" horiz-adv-x="1114" d="M262 973q-46 41 -69 96t-23 123q0 157 100.5 234t304.5 77q205 0 293 -62t88 -204v-49h-288v22q0 32 -21.5 47t-66.5 15q-52 0 -73.5 -15t-21.5 -51q0 -65 155 -120q44 -16 68 -25q176 -67 237 -131t61 -166q0 -86 -39.5 -148t-116.5 -98q53 -53 78.5 -112.5t25.5 -131.5 q0 -148 -102 -220t-313 -72q-220 0 -314 61.5t-94 204.5v67h303v-28q0 -42 21.5 -59t72.5 -17q56 0 77.5 13.5t21.5 47.5q0 75 -154 130l-33 12q-205 77 -271.5 143.5t-66.5 173.5q0 83 41.5 145.5t118.5 96.5zM719 614q17 14 25 29.5t8 34.5q0 34 -22.5 57t-76.5 43 l-261 102q-17 -13 -24.5 -28t-7.5 -35q0 -34 22 -57t75 -43z" />
<glyph unicode="&#xa8;" d="M573 1225v245h226v-245h-226zM225 1225v245h226v-245h-226z" />
<glyph unicode="&#xa9;" horiz-adv-x="1706" d="M1212 897h-188q-8 70 -53 108.5t-119 38.5q-91 0 -143 -81.5t-52 -227.5q0 -147 52 -224t151 -77q73 0 117 42t53 119l193 1q-8 -139 -109 -223t-260 -84q-186 0 -293.5 118t-107.5 322q0 206 109.5 328.5t293.5 122.5q152 0 250.5 -78t105.5 -205zM854 1356 q-128 0 -239.5 -46t-198.5 -134q-89 -90 -136 -203.5t-47 -237.5q0 -125 47 -237t136 -201q88 -88 201 -135t237 -47t237.5 47t204.5 137q88 86 133.5 197t45.5 239q0 126 -46.5 238.5t-134.5 200.5q-89 89 -201 135.5t-239 46.5zM852 1479q152 0 287.5 -56t242.5 -163 q105 -105 160 -240.5t55 -286.5q0 -152 -54.5 -284t-160.5 -236q-111 -108 -248 -165.5t-282 -57.5q-147 0 -280.5 56.5t-241.5 164.5q-107 106 -163 240.5t-56 281.5q0 149 56 284.5t163 244.5q105 106 238 161.5t284 55.5z" />
<glyph unicode="&#xaa;" horiz-adv-x="686" d="M387 946v80q0 23 -14.5 36t-40.5 13t-41 -13t-15 -36v-80q0 -23 15 -36t41 -13t40.5 13t14.5 36zM399 752v59q-25 -38 -63.5 -55t-104.5 -17q-99 0 -138.5 44t-39.5 155v88q0 93 45 136.5t140 43.5q40 0 78.5 -11t70.5 -32v109q0 46 -11 60t-44 14q-32 0 -42.5 -14.5 t-10.5 -59.5h-201v53q0 101 52.5 137.5t215.5 36.5t215.5 -36.5t52.5 -137.5v-573h-215z" />
<glyph unicode="&#xab;" horiz-adv-x="1014" d="M653 201l-159 323l159 322h297l-149 -322l160 -323h-308zM227 201l-157 323l157 322h299l-151 -322l162 -323h-310z" />
<glyph unicode="&#xac;" horiz-adv-x="1706" d="M254 864h1198v-502h-199v306h-999v196z" />
<glyph unicode="&#xad;" horiz-adv-x="692" d="M76 408v256h540v-256h-540z" />
<glyph unicode="&#xae;" horiz-adv-x="1706" d="M745 1034v-239h99q88 0 129 28t41 88q0 63 -44 93t-136 30h-89zM545 1161h323q176 0 264.5 -59.5t88.5 -177.5q0 -82 -48 -140t-133 -79l185 -369h-224l-157 338h-99v-338h-200v825zM854 1356q-127 0 -236 -44.5t-196 -131.5q-91 -91 -140 -206.5t-49 -238.5 q0 -124 46 -235.5t133 -198.5q89 -91 203 -139.5t237 -48.5q120 0 233.5 47t206.5 135q87 84 135 196t48 232q0 133 -44.5 245t-132.5 201q-90 93 -202.5 140t-241.5 47zM852 1479q154 0 290.5 -57.5t243.5 -166.5q103 -104 157 -238t54 -284q0 -152 -56 -287.5t-163 -238.5 q-107 -105 -243.5 -161t-282.5 -56q-149 0 -285 58t-243 167q-104 105 -158.5 238.5t-54.5 279.5q0 102 27 198.5t81 188.5q101 170 267 264.5t366 94.5z" />
<glyph unicode="&#xaf;" d="M225 1270v155h574v-155h-574z" />
<glyph unicode="&#xb0;" horiz-adv-x="674" d="M338 1335q-73 0 -124.5 -51t-51.5 -123q0 -74 51 -125t125 -51q72 0 123 52t51 124t-51 123t-123 51zM338 1464q126 0 214.5 -89.5t88.5 -215.5q0 -125 -89 -214t-216 -89q-126 0 -213.5 88t-87.5 215t88.5 216t214.5 89z" />
<glyph unicode="&#xb1;" horiz-adv-x="1706" d="M254 197h1198v-199h-1198v199zM752 1223h202v-326h498v-199h-498v-325h-202v325h-498v199h498v326z" />
<glyph unicode="&#xb2;" horiz-adv-x="676" d="M63 594v143q0 54 5 87.5t16 62.5q13 33 38 60.5t71 56.5q27 17 85 41t80 38q11 7 16 19.5t5 34.5v145q0 39 -9 51.5t-34 12.5t-34 -13.5t-9 -50.5v-121h-217v84q0 148 54 199t212 51q157 0 210.5 -50.5t53.5 -199.5v-112q0 -76 -28.5 -116.5t-106.5 -74.5q-18 -8 -50 -22 q-136 -57 -136 -129v-37h315v-160h-537z" />
<glyph unicode="&#xb3;" horiz-adv-x="676" d="M70 1280q0 126 53.5 170.5t212.5 44.5t211.5 -43.5t52.5 -171.5v-70q0 -70 -26.5 -101.5t-93.5 -43.5q71 -9 100.5 -45t29.5 -115v-106q0 -127 -54.5 -171t-219.5 -44q-167 0 -222 44t-55 171v94h213v-98q0 -36 12.5 -49t47.5 -13t47 12.5t12 49.5v120q0 39 -17 51.5 t-81 12.5h-82v147h76q58 0 77 15t19 65v76q0 38 -11.5 51t-43.5 13t-44 -13.5t-12 -50.5v-57h-202v55z" />
<glyph unicode="&#xb4;" d="M805 1536l-313 -371h-142l197 371h258z" />
<glyph unicode="&#xb5;" horiz-adv-x="1249" d="M205 1092h289l-76 -435q-15 -80 -23 -151.5t-8 -116.5q0 -93 42 -138.5t128 -45.5q100 0 155.5 82t92.5 291l90 514h289l-193 -1092h-268l18 117q-42 -78 -93.5 -114t-121.5 -36q-67 0 -119 29.5t-94 91.5l-90 -526h-286z" />
<glyph unicode="&#xb6;" d="M983 1479v-111h-113v-1368h-151v1368h-158v-1368h-153v784q-167 6 -267 101t-100 245q0 158 107 253.5t284 95.5h551z" />
<glyph unicode="&#xb7;" horiz-adv-x="512" d="M80 741q0 73 51.5 125t124.5 52t123.5 -52t50.5 -125t-50 -123.5t-124 -50.5q-73 0 -124.5 50.5t-51.5 123.5z" />
<glyph unicode="&#xb8;" d="M283 -438v129q80 -21 145 -32t111 -11q52 0 76 17.5t24 55.5t-28 54t-93 16q-23 0 -35 -0.5t-22 -1.5v211h102v-90h15q117 0 176 -48t59 -143q0 -100 -66 -150t-198 -50q-51 0 -119.5 11t-146.5 32z" />
<glyph unicode="&#xb9;" horiz-adv-x="676" d="M299 594v745q-29 -45 -65.5 -92t-81.5 -98l-123 106q63 66 114 122t93 108h282v-891h-219z" />
<glyph unicode="&#xba;" horiz-adv-x="700" d="M287 1262v-287q0 -45 12.5 -59.5t50.5 -14.5t51 15t13 59v287q0 44 -12.5 58.5t-51.5 14.5q-37 0 -50 -14.5t-13 -58.5zM53 1208q0 171 61.5 231t235.5 60t236.5 -61t62.5 -230v-182q0 -167 -62.5 -227t-236.5 -60t-235.5 59.5t-61.5 227.5v182z" />
<glyph unicode="&#xbb;" horiz-adv-x="1014" d="M786 846l160 -322l-160 -323h-299l152 323l-160 322h307zM360 846l158 -322l-158 -323h-299l152 323l-162 322h309z" />
<glyph unicode="&#xbc;" horiz-adv-x="1632" d="M1167 313h176v414zM1343 0v172h-327v199l209 460h319v-518h55v-141h-55v-172h-201zM303 -18l836 1521h188l-833 -1521h-191zM287 653v695q-35 -51 -71 -94.5t-73 -82.5l-116 99q64 64 111 115.5t85 99.5h273v-832h-209z" />
<glyph unicode="&#xbd;" horiz-adv-x="1632" d="M1049 0v133q0 58 4 87.5t14 53.5q13 32 37 57t65 50q27 17 82.5 39.5t78.5 36.5q10 5 15 17.5t5 33.5v135q0 35 -8.5 46t-32.5 11t-32.5 -11t-8.5 -46v-113h-209v78q0 138 52 186t202 48q151 0 202.5 -47.5t51.5 -186.5v-104q0 -72 -27.5 -109.5t-103.5 -70.5 q-16 -7 -44 -18q-135 -53 -135 -122v-34h304v-150h-512zM303 -18l836 1521h188l-833 -1521h-191zM287 653v695q-35 -51 -71 -94.5t-73 -82.5l-116 99q64 64 111 115.5t85 99.5h273v-832h-209z" />
<glyph unicode="&#xbe;" horiz-adv-x="1632" d="M1167 313h176v414zM1343 0v172h-327v199l209 460h319v-518h55v-141h-55v-172h-201zM303 -18l836 1521h188l-833 -1521h-191zM68 1292q0 120 50.5 161.5t200.5 41.5q153 0 203.5 -41.5t50.5 -161.5v-63q0 -66 -25.5 -96t-90.5 -41q69 -8 98 -41t29 -107v-100 q0 -118 -53 -159.5t-212 -41.5q-157 0 -209.5 41t-52.5 160v88h203v-90q0 -34 12 -47t45 -13t44.5 12.5t11.5 47.5v110q0 38 -17 50t-77 12h-78v135h73q55 0 73 14t18 62v71q0 35 -11 46.5t-43 11.5q-30 0 -40.5 -11.5t-10.5 -46.5v-53h-192v49z" />
<glyph unicode="&#xbf;" horiz-adv-x="985" d="M696 1485v-328h-319v328h319zM698 1020v-146q0 -82 -20 -129.5t-68 -82.5q-19 -15 -54 -40q-77 -55 -99 -77q-15 -16 -21 -37.5t-6 -79.5v-102q0 -63 16.5 -84t67.5 -21t68.5 21.5t17.5 83.5v116h315v-43q0 -246 -84.5 -331.5t-330.5 -85.5q-235 0 -322.5 69t-87.5 254 v156q0 118 29.5 175t109.5 112q14 8 39 24q109 67 109 152v96h321z" />
<glyph unicode="&#xc0;" horiz-adv-x="1063" d="M449 612h157l-76 701zM31 0l221 1485h553l227 -1485h-354l-41 365h-219l-41 -365h-346zM239 1974h258l197 -371h-142z" />
<glyph unicode="&#xc1;" horiz-adv-x="1063" d="M449 612h157l-76 701zM31 0l221 1485h553l227 -1485h-354l-41 365h-219l-41 -365h-346zM825 1974l-313 -371h-142l197 371h258z" />
<glyph unicode="&#xc2;" horiz-adv-x="1063" d="M449 612h157l-76 701zM31 0l221 1485h553l227 -1485h-354l-41 365h-219l-41 -365h-346zM217 1603l196 371h238l196 -371h-141l-174 219l-176 -219h-139z" />
<glyph unicode="&#xc3;" horiz-adv-x="1063" d="M449 612h157l-76 701zM31 0l221 1485h553l227 -1485h-354l-41 365h-219l-41 -365h-346zM849 1925q-26 -124 -77 -183t-131 -59q-21 0 -39 2.5t-36 8.5l-87 24q-29 8 -41.5 10t-24.5 2q-34 0 -55 -20t-33 -64h-110q24 125 74 183.5t130 58.5q20 0 41.5 -3.5t44.5 -10.5 l92 -27q10 -3 21.5 -4.5t34.5 -1.5q33 0 54 21t32 63h110z" />
<glyph unicode="&#xc4;" horiz-adv-x="1063" d="M449 612h157l-76 701zM31 0l221 1485h553l227 -1485h-354l-41 365h-219l-41 -365h-346zM593 1663v245h226v-245h-226zM245 1663v245h226v-245h-226z" />
<glyph unicode="&#xc5;" horiz-adv-x="1063" d="M416 1720q0 -49 33 -82.5t81 -33.5q50 0 83.5 33.5t33.5 82.5q0 48 -34.5 81.5t-82.5 33.5t-81 -33t-33 -82zM449 612h157l-76 701zM31 0l221 1485h190q-81 34 -122 93t-41 142q0 105 73.5 178.5t177.5 73.5q106 0 180 -73.5t74 -178.5q0 -82 -43 -143.5t-123 -91.5h187 l227 -1485h-354l-41 365h-219l-41 -365h-346z" />
<glyph unicode="&#xc6;" horiz-adv-x="1450" d="M1366 1485v-266h-309v-328h289v-256h-289v-369h338v-266h-670v387h-317l-111 -387h-350l469 1485h950zM479 643h246v594h-78z" />
<glyph unicode="&#xc7;" horiz-adv-x="999" d="M616 983v150q0 63 -17 83.5t-69 20.5q-51 0 -67.5 -20t-16.5 -84v-783q0 -64 16.5 -84t67.5 -20q52 0 69 20.5t17 83.5v203h316v-154q0 -150 -15.5 -216.5t-52.5 -112.5q-39 -49 -100.5 -68.5t-224.5 -19.5q-190 0 -258 19.5t-113 68.5q-42 46 -60 113.5t-18 215.5v686 q0 148 17.5 215t60.5 113q46 50 121.5 70t249.5 20q149 0 216.5 -19.5t106.5 -68.5q38 -46 54 -114.5t16 -215.5v-102h-316zM275 -438v129q80 -21 145 -32t111 -11q52 0 76 17.5t24 55.5t-28 54t-93 16q-23 0 -35 -0.5t-22 -1.5v211h102v-90h15q117 0 176 -48t59 -143 q0 -100 -66 -150t-198 -50q-51 0 -119.5 11t-146.5 32z" />
<glyph unicode="&#xc8;" horiz-adv-x="848" d="M109 0v1485h653v-266h-307v-328h288v-256h-288v-369h336v-266h-682zM143 1974h258l197 -371h-142z" />
<glyph unicode="&#xc9;" horiz-adv-x="848" d="M109 0v1485h653v-266h-307v-328h288v-256h-288v-369h336v-266h-682zM729 1974l-313 -371h-142l197 371h258z" />
<glyph unicode="&#xca;" horiz-adv-x="848" d="M109 0v1485h653v-266h-307v-328h288v-256h-288v-369h336v-266h-682zM121 1603l196 371h238l196 -371h-141l-174 219l-176 -219h-139z" />
<glyph unicode="&#xcb;" horiz-adv-x="848" d="M109 0v1485h653v-266h-307v-328h288v-256h-288v-369h336v-266h-682zM497 1663v245h226v-245h-226zM149 1663v245h226v-245h-226z" />
<glyph unicode="&#xcc;" horiz-adv-x="580" d="M461 0h-346v1485h346v-1485zM-2 1974h258l197 -371h-142z" />
<glyph unicode="&#xcd;" horiz-adv-x="580" d="M461 0h-346v1485h346v-1485zM584 1974l-313 -371h-142l197 371h258z" />
<glyph unicode="&#xce;" horiz-adv-x="580" d="M461 0h-346v1485h346v-1485zM-24 1603l196 371h238l196 -371h-141l-174 219l-176 -219h-139z" />
<glyph unicode="&#xcf;" horiz-adv-x="580" d="M461 0h-346v1485h346v-1485zM352 1663v245h226v-245h-226zM4 1663v245h226v-245h-226z" />
<glyph unicode="&#xd0;" horiz-adv-x="1096" d="M649 365v753q0 61 -18 81t-74 20h-102v-359h116v-162h-116v-434h102q56 0 74 20.5t18 80.5zM119 0v698h-119v162h119v625h438q264 0 356.5 -93.5t92.5 -367.5v-563q0 -274 -92.5 -367.5t-356.5 -93.5h-438z" />
<glyph unicode="&#xd1;" horiz-adv-x="1266" d="M109 0v1485h487l268 -1174l-20 1174h313v-1485h-485l-273 1206l23 -1206h-313zM950 1925q-26 -124 -77 -183t-131 -59q-21 0 -39 2.5t-36 8.5l-87 24q-29 8 -41.5 10t-24.5 2q-34 0 -55 -20t-33 -64h-110q24 125 74 183.5t130 58.5q20 0 41.5 -3.5t44.5 -10.5l92 -27 q10 -3 21.5 -4.5t34.5 -1.5q33 0 54 21t32 63h110z" />
<glyph unicode="&#xd2;" horiz-adv-x="1075" d="M631 350v783q0 62 -18.5 83t-73.5 21q-56 0 -74.5 -21t-18.5 -83v-783q0 -63 18.5 -83.5t74.5 -20.5q55 0 73.5 20.5t18.5 83.5zM985 399q0 -153 -17 -218.5t-59 -110.5q-45 -49 -113 -68.5t-257 -19.5q-190 0 -258 19.5t-113 68.5q-42 46 -60 113.5t-18 215.5v686 q0 148 17.5 215t60.5 113q46 50 121.5 70t249.5 20q173 0 247.5 -20t120.5 -70q43 -46 60.5 -113t17.5 -215v-686zM246 1974h258l197 -371h-142z" />
<glyph unicode="&#xd3;" horiz-adv-x="1075" d="M631 350v783q0 62 -18.5 83t-73.5 21q-56 0 -74.5 -21t-18.5 -83v-783q0 -63 18.5 -83.5t74.5 -20.5q55 0 73.5 20.5t18.5 83.5zM985 399q0 -153 -17 -218.5t-59 -110.5q-45 -49 -113 -68.5t-257 -19.5q-190 0 -258 19.5t-113 68.5q-42 46 -60 113.5t-18 215.5v686 q0 148 17.5 215t60.5 113q46 50 121.5 70t249.5 20q173 0 247.5 -20t120.5 -70q43 -46 60.5 -113t17.5 -215v-686zM832 1974l-313 -371h-142l197 371h258z" />
<glyph unicode="&#xd4;" horiz-adv-x="1075" d="M631 350v783q0 62 -18.5 83t-73.5 21q-56 0 -74.5 -21t-18.5 -83v-783q0 -63 18.5 -83.5t74.5 -20.5q55 0 73.5 20.5t18.5 83.5zM985 399q0 -153 -17 -218.5t-59 -110.5q-45 -49 -113 -68.5t-257 -19.5q-190 0 -258 19.5t-113 68.5q-42 46 -60 113.5t-18 215.5v686 q0 148 17.5 215t60.5 113q46 50 121.5 70t249.5 20q173 0 247.5 -20t120.5 -70q43 -46 60.5 -113t17.5 -215v-686zM224 1603l196 371h238l196 -371h-141l-174 219l-176 -219h-139z" />
<glyph unicode="&#xd5;" horiz-adv-x="1075" d="M631 350v783q0 62 -18.5 83t-73.5 21q-56 0 -74.5 -21t-18.5 -83v-783q0 -63 18.5 -83.5t74.5 -20.5q55 0 73.5 20.5t18.5 83.5zM985 399q0 -153 -17 -218.5t-59 -110.5q-45 -49 -113 -68.5t-257 -19.5q-190 0 -258 19.5t-113 68.5q-42 46 -60 113.5t-18 215.5v686 q0 148 17.5 215t60.5 113q46 50 121.5 70t249.5 20q173 0 247.5 -20t120.5 -70q43 -46 60.5 -113t17.5 -215v-686zM856 1925q-26 -124 -77 -183t-131 -59q-21 0 -39 2.5t-36 8.5l-87 24q-29 8 -41.5 10t-24.5 2q-34 0 -55 -20t-33 -64h-110q24 125 74 183.5t130 58.5 q20 0 41.5 -3.5t44.5 -10.5l92 -27q10 -3 21.5 -4.5t34.5 -1.5q33 0 54 21t32 63h110z" />
<glyph unicode="&#xd6;" horiz-adv-x="1075" d="M631 350v783q0 62 -18.5 83t-73.5 21q-56 0 -74.5 -21t-18.5 -83v-783q0 -63 18.5 -83.5t74.5 -20.5q55 0 73.5 20.5t18.5 83.5zM985 399q0 -153 -17 -218.5t-59 -110.5q-45 -49 -113 -68.5t-257 -19.5q-190 0 -258 19.5t-113 68.5q-42 46 -60 113.5t-18 215.5v686 q0 148 17.5 215t60.5 113q46 50 121.5 70t249.5 20q173 0 247.5 -20t120.5 -70q43 -46 60.5 -113t17.5 -215v-686zM600 1663v245h226v-245h-226zM252 1663v245h226v-245h-226z" />
<glyph unicode="&#xd7;" horiz-adv-x="1706" d="M416 1202l450 -450l451 450l141 -139l-450 -453l450 -450l-141 -140l-451 451l-450 -451l-140 140l451 450l-451 453z" />
<glyph unicode="&#xd8;" horiz-adv-x="1075" d="M117 147q-14 41 -20.5 91.5t-6.5 160.5v686q0 148 17.5 215t60.5 113q46 50 121 70t250 20q116 0 175 -7t109 -23l84 153l148 -80l-105 -196q19 -36 27 -89.5t8 -175.5v-686q0 -252 -81.5 -334.5t-323.5 -82.5q-176 0 -239 8t-101 28l-95 -178l-149 84zM641 797 l-207 -428v-25q0 -64 20.5 -85t84.5 -21q62 0 82 21.5t20 84.5v453zM434 717l207 426q-2 64 -21.5 84t-80.5 20q-64 0 -84.5 -21t-20.5 -85v-424z" />
<glyph unicode="&#xd9;" horiz-adv-x="1067" d="M102 1485h347v-1131q0 -62 18 -83t74 -21q55 0 73.5 21t18.5 83v1131h332v-1006q0 -174 -18 -254.5t-60 -136.5q-45 -58 -122.5 -82t-232.5 -24q-158 0 -234 24t-120 82q-41 54 -58.5 133t-17.5 258v1006zM242 1974h258l197 -371h-142z" />
<glyph unicode="&#xda;" horiz-adv-x="1067" d="M102 1485h347v-1131q0 -62 18 -83t74 -21q55 0 73.5 21t18.5 83v1131h332v-1006q0 -174 -18 -254.5t-60 -136.5q-45 -58 -122.5 -82t-232.5 -24q-158 0 -234 24t-120 82q-41 54 -58.5 133t-17.5 258v1006zM828 1974l-313 -371h-142l197 371h258z" />
<glyph unicode="&#xdb;" horiz-adv-x="1067" d="M102 1485h347v-1131q0 -62 18 -83t74 -21q55 0 73.5 21t18.5 83v1131h332v-1006q0 -174 -18 -254.5t-60 -136.5q-45 -58 -122.5 -82t-232.5 -24q-158 0 -234 24t-120 82q-41 54 -58.5 133t-17.5 258v1006zM220 1603l196 371h238l196 -371h-141l-174 219l-176 -219h-139z " />
<glyph unicode="&#xdc;" horiz-adv-x="1067" d="M102 1485h347v-1131q0 -62 18 -83t74 -21q55 0 73.5 21t18.5 83v1131h332v-1006q0 -174 -18 -254.5t-60 -136.5q-45 -58 -122.5 -82t-232.5 -24q-158 0 -234 24t-120 82q-41 54 -58.5 133t-17.5 258v1006zM596 1663v245h226v-245h-226zM248 1663v245h226v-245h-226z" />
<glyph unicode="&#xdd;" horiz-adv-x="944" d="M301 0v481l-307 1004h350l143 -672l134 672h327l-301 -1004v-481h-346zM766 1974l-313 -371h-142l197 371h258z" />
<glyph unicode="&#xde;" horiz-adv-x="1034" d="M455 1012v-529h77q62 0 82.5 22t20.5 85v315q0 62 -21 84.5t-82 22.5h-77zM504 1274q276 0 377.5 -83.5t101.5 -297.5v-301q0 -213 -101 -297t-370 -84h-57v-211h-346v1485h346v-211h49z" />
<glyph unicode="&#xdf;" horiz-adv-x="999" d="M98 0v1147q0 186 95.5 275t293.5 89q196 0 287.5 -77.5t91.5 -243.5v-94q0 -115 -50.5 -177t-160.5 -83q146 -29 203 -98.5t57 -219.5v-180q0 -180 -74 -265t-231 -85q-53 0 -86 6.5t-61 22.5v241q5 -2 15 -7q35 -18 52 -18q42 0 60 36t18 122v133q0 85 -32 122t-113 47 v247q68 4 91.5 27t23.5 108v103q0 64 -18 86t-71 22q-52 0 -70 -22t-18 -86v-1178h-303z" />
<glyph unicode="&#xe0;" horiz-adv-x="915" d="M516 279v112q0 34 -19.5 53t-54.5 19t-54 -19t-19 -53v-112q0 -35 19 -53.5t54 -18.5t54.5 18.5t19.5 53.5zM532 0v84q-34 -55 -86 -78.5t-139 -23.5q-132 0 -184.5 62t-52.5 222v127q0 131 60 193.5t187 62.5q55 0 106 -15.5t93 -45.5v155q0 64 -14.5 84.5t-59.5 20.5 q-43 0 -57 -20.5t-14 -84.5h-269v76q0 144 70 196t289 52q218 0 288 -52t70 -196v-819h-287zM184 1536h258l197 -371h-142z" />
<glyph unicode="&#xe1;" horiz-adv-x="915" d="M516 279v112q0 34 -19.5 53t-54.5 19t-54 -19t-19 -53v-112q0 -35 19 -53.5t54 -18.5t54.5 18.5t19.5 53.5zM532 0v84q-34 -55 -86 -78.5t-139 -23.5q-132 0 -184.5 62t-52.5 222v127q0 131 60 193.5t187 62.5q55 0 106 -15.5t93 -45.5v155q0 64 -14.5 84.5t-59.5 20.5 q-43 0 -57 -20.5t-14 -84.5h-269v76q0 144 70 196t289 52q218 0 288 -52t70 -196v-819h-287zM770 1536l-313 -371h-142l197 371h258z" />
<glyph unicode="&#xe2;" horiz-adv-x="915" d="M516 279v112q0 34 -19.5 53t-54.5 19t-54 -19t-19 -53v-112q0 -35 19 -53.5t54 -18.5t54.5 18.5t19.5 53.5zM532 0v84q-34 -55 -86 -78.5t-139 -23.5q-132 0 -184.5 62t-52.5 222v127q0 131 60 193.5t187 62.5q55 0 106 -15.5t93 -45.5v155q0 64 -14.5 84.5t-59.5 20.5 q-43 0 -57 -20.5t-14 -84.5h-269v76q0 144 70 196t289 52q218 0 288 -52t70 -196v-819h-287zM162 1165l196 371h238l196 -371h-141l-174 219l-176 -219h-139z" />
<glyph unicode="&#xe3;" horiz-adv-x="915" d="M516 279v112q0 34 -19.5 53t-54.5 19t-54 -19t-19 -53v-112q0 -35 19 -53.5t54 -18.5t54.5 18.5t19.5 53.5zM532 0v84q-34 -55 -86 -78.5t-139 -23.5q-132 0 -184.5 62t-52.5 222v127q0 131 60 193.5t187 62.5q55 0 106 -15.5t93 -45.5v155q0 64 -14.5 84.5t-59.5 20.5 q-43 0 -57 -20.5t-14 -84.5h-269v76q0 144 70 196t289 52q218 0 288 -52t70 -196v-819h-287zM794 1487q-26 -124 -77 -183t-131 -59q-21 0 -39 2.5t-36 8.5l-87 24q-29 8 -41.5 10t-24.5 2q-34 0 -55 -20t-33 -64h-110q24 125 74 183.5t130 58.5q20 0 41.5 -3.5t44.5 -10.5 l92 -27q10 -3 21.5 -4.5t34.5 -1.5q33 0 54 21t32 63h110z" />
<glyph unicode="&#xe4;" horiz-adv-x="915" d="M516 279v112q0 34 -19.5 53t-54.5 19t-54 -19t-19 -53v-112q0 -35 19 -53.5t54 -18.5t54.5 18.5t19.5 53.5zM532 0v84q-34 -55 -86 -78.5t-139 -23.5q-132 0 -184.5 62t-52.5 222v127q0 131 60 193.5t187 62.5q55 0 106 -15.5t93 -45.5v155q0 64 -14.5 84.5t-59.5 20.5 q-43 0 -57 -20.5t-14 -84.5h-269v76q0 144 70 196t289 52q218 0 288 -52t70 -196v-819h-287zM538 1225v245h226v-245h-226zM190 1225v245h226v-245h-226z" />
<glyph unicode="&#xe5;" horiz-adv-x="915" d="M356 1399q0 -52 35.5 -86.5t87.5 -34.5t87.5 35t35.5 86q0 50 -36 86.5t-87 36.5q-52 0 -87.5 -35.5t-35.5 -87.5zM213 1399q0 111 77.5 188.5t188.5 77.5q112 0 189 -77.5t77 -188.5q0 -112 -77 -189t-189 -77t-189 77t-77 189zM516 279v112q0 34 -19.5 53t-54.5 19 t-54 -19t-19 -53v-112q0 -35 19 -53.5t54 -18.5t54.5 18.5t19.5 53.5zM532 0v84q-34 -55 -86 -78.5t-139 -23.5q-132 0 -184.5 62t-52.5 222v127q0 131 60 193.5t187 62.5q55 0 106 -15.5t93 -45.5v155q0 64 -14.5 84.5t-59.5 20.5q-43 0 -57 -20.5t-14 -84.5h-269v76 q0 144 70 196t289 52q218 0 288 -52t70 -196v-819h-287z" />
<glyph unicode="&#xe6;" horiz-adv-x="1380" d="M639 94q-35 -61 -98 -86.5t-187 -25.5q-143 0 -206.5 66.5t-63.5 217.5v127q0 131 60.5 193.5t187.5 62.5q56 0 108.5 -15t102.5 -46v155q0 64 -16 84.5t-64 20.5q-44 0 -60 -19t-16 -71v-15h-270v76q0 141 67.5 194.5t249.5 53.5q123 0 183.5 -18.5t87.5 -61.5 q33 43 88 61.5t155 18.5q208 0 286.5 -88t78.5 -326v-204h-475v-132q0 -65 19.5 -87.5t74.5 -22.5t75.5 21t22.5 83v23h283v-64q0 -159 -78.5 -223.5t-273.5 -64.5q-137 0 -213.5 26.5t-108.5 85.5zM543 279v112q0 33 -22 52.5t-58 19.5t-57 -19.5t-21 -52.5v-112 q0 -34 21.5 -55t56.5 -21q36 0 58 21t22 55zM838 750v-95h192v95q0 61 -20 82.5t-78 21.5q-57 0 -75.5 -20t-18.5 -84z" />
<glyph unicode="&#xe7;" horiz-adv-x="877" d="M813 414v-107q0 -189 -71 -257t-273 -68q-234 0 -316.5 85.5t-82.5 325.5v260q0 241 83 327.5t316 86.5q202 0 273 -68t71 -258v-51h-285v39q0 63 -15 84t-58 21q-44 0 -59 -21t-15 -84v-412q0 -62 15 -83t59 -21q43 0 58 21t15 83v97h285zM209 -438v129q80 -21 145 -32 t111 -11q52 0 76 17.5t24 55.5t-28 54t-93 16q-23 0 -35 -0.5t-22 -1.5v211h102v-90h15q117 0 176 -48t59 -143q0 -100 -66 -150t-198 -50q-51 0 -119.5 11t-146.5 32z" />
<glyph unicode="&#xe8;" horiz-adv-x="934" d="M381 756v-101h192v101q0 66 -18 87t-78 21q-58 0 -77 -22t-19 -86zM70 653q0 242 82 328t315 86q232 0 314.5 -86t82.5 -328v-204h-483v-132q0 -64 18 -84t74 -20t74 21t18 83v23h299v-70q0 -165 -84.5 -226.5t-337.5 -61.5q-212 0 -292 87t-80 324v260zM174 1536h258 l197 -371h-142z" />
<glyph unicode="&#xe9;" horiz-adv-x="934" d="M381 756v-101h192v101q0 66 -18 87t-78 21q-58 0 -77 -22t-19 -86zM70 653q0 242 82 328t315 86q232 0 314.5 -86t82.5 -328v-204h-483v-132q0 -64 18 -84t74 -20t74 21t18 83v23h299v-70q0 -165 -84.5 -226.5t-337.5 -61.5q-212 0 -292 87t-80 324v260zM760 1536 l-313 -371h-142l197 371h258z" />
<glyph unicode="&#xea;" horiz-adv-x="934" d="M381 756v-101h192v101q0 66 -18 87t-78 21q-58 0 -77 -22t-19 -86zM70 653q0 242 82 328t315 86q232 0 314.5 -86t82.5 -328v-204h-483v-132q0 -64 18 -84t74 -20t74 21t18 83v23h299v-70q0 -165 -84.5 -226.5t-337.5 -61.5q-212 0 -292 87t-80 324v260zM152 1165 l196 371h238l196 -371h-141l-174 219l-176 -219h-139z" />
<glyph unicode="&#xeb;" horiz-adv-x="934" d="M381 756v-101h192v101q0 66 -18 87t-78 21q-58 0 -77 -22t-19 -86zM70 653q0 242 82 328t315 86q232 0 314.5 -86t82.5 -328v-204h-483v-132q0 -64 18 -84t74 -20t74 21t18 83v23h299v-70q0 -165 -84.5 -226.5t-337.5 -61.5q-212 0 -292 87t-80 324v260zM528 1225v245 h226v-245h-226zM180 1225v245h226v-245h-226z" />
<glyph unicode="&#xec;" horiz-adv-x="494" d="M397 0h-303v1049h303v-1049zM-45 1536h258l197 -371h-142z" />
<glyph unicode="&#xed;" horiz-adv-x="494" d="M397 0h-303v1049h303v-1049zM541 1536l-313 -371h-142l197 371h258z" />
<glyph unicode="&#xee;" horiz-adv-x="494" d="M397 0h-303v1049h303v-1049zM-67 1165l196 371h238l196 -371h-141l-174 219l-176 -219h-139z" />
<glyph unicode="&#xef;" horiz-adv-x="494" d="M397 0h-303v1049h303v-1049zM309 1225v245h226v-245h-226zM-39 1225v245h226v-245h-226z" />
<glyph unicode="&#xf0;" horiz-adv-x="934" d="M553 1489l49 -74l139 51l60 -135l-115 -39q90 -149 132 -303t42 -338v-233q0 -239 -76 -335.5t-262 -96.5h-116q-186 0 -262 96t-76 336v217q0 224 71 327t223 103q73 0 122.5 -30t97.5 -105q-23 73 -53.5 143t-69.5 137l-234 -82l-53 134l213 75l-92 152h260zM551 729 q0 64 -16.5 84.5t-67.5 20.5t-68.5 -21.5t-17.5 -83.5v-412q0 -63 17 -83.5t69 -20.5q50 0 67 21t17 83v412z" />
<glyph unicode="&#xf1;" horiz-adv-x="944" d="M94 0v1049h283v-136q46 82 105.5 118t148.5 36q123 0 172 -67.5t49 -251.5v-748h-303v731q0 56 -16.5 76t-59.5 20t-59.5 -20t-16.5 -76v-731h-303zM790 1487q-26 -124 -77 -183t-131 -59q-21 0 -39 2.5t-36 8.5l-87 24q-29 8 -41.5 10t-24.5 2q-34 0 -55 -20t-33 -64 h-110q24 125 74 183.5t130 58.5q20 0 41.5 -3.5t44.5 -10.5l92 -27q10 -3 21.5 -4.5t34.5 -1.5q33 0 54 21t32 63h110z" />
<glyph unicode="&#xf2;" horiz-adv-x="934" d="M381 729v-412q0 -62 17 -83t69 -21q50 0 67 21t17 83v412q0 63 -16.5 84t-67.5 21t-68.5 -21.5t-17.5 -83.5zM70 653q0 242 82 328t315 86q232 0 314.5 -86t82.5 -328v-260q0 -240 -82 -325.5t-315 -85.5t-315 85t-82 326v260zM174 1536h258l197 -371h-142z" />
<glyph unicode="&#xf3;" horiz-adv-x="934" d="M381 729v-412q0 -62 17 -83t69 -21q50 0 67 21t17 83v412q0 63 -16.5 84t-67.5 21t-68.5 -21.5t-17.5 -83.5zM70 653q0 242 82 328t315 86q232 0 314.5 -86t82.5 -328v-260q0 -240 -82 -325.5t-315 -85.5t-315 85t-82 326v260zM760 1536l-313 -371h-142l197 371h258z" />
<glyph unicode="&#xf4;" horiz-adv-x="934" d="M381 729v-412q0 -62 17 -83t69 -21q50 0 67 21t17 83v412q0 63 -16.5 84t-67.5 21t-68.5 -21.5t-17.5 -83.5zM70 653q0 242 82 328t315 86q232 0 314.5 -86t82.5 -328v-260q0 -240 -82 -325.5t-315 -85.5t-315 85t-82 326v260zM152 1165l196 371h238l196 -371h-141 l-174 219l-176 -219h-139z" />
<glyph unicode="&#xf5;" horiz-adv-x="934" d="M381 729v-412q0 -62 17 -83t69 -21q50 0 67 21t17 83v412q0 63 -16.5 84t-67.5 21t-68.5 -21.5t-17.5 -83.5zM70 653q0 242 82 328t315 86q232 0 314.5 -86t82.5 -328v-260q0 -240 -82 -325.5t-315 -85.5t-315 85t-82 326v260zM784 1487q-26 -124 -77 -183t-131 -59 q-21 0 -39 2.5t-36 8.5l-87 24q-29 8 -41.5 10t-24.5 2q-34 0 -55 -20t-33 -64h-110q24 125 74 183.5t130 58.5q20 0 41.5 -3.5t44.5 -10.5l92 -27q10 -3 21.5 -4.5t34.5 -1.5q33 0 54 21t32 63h110z" />
<glyph unicode="&#xf6;" horiz-adv-x="934" d="M381 729v-412q0 -62 17 -83t69 -21q50 0 67 21t17 83v412q0 63 -16.5 84t-67.5 21t-68.5 -21.5t-17.5 -83.5zM70 653q0 242 82 328t315 86q232 0 314.5 -86t82.5 -328v-260q0 -240 -82 -325.5t-315 -85.5t-315 85t-82 326v260zM528 1225v245h226v-245h-226zM180 1225v245 h226v-245h-226z" />
<glyph unicode="&#xf7;" horiz-adv-x="1706" d="M854 369q62 0 107 -45t45 -107q0 -61 -45 -105t-107 -44q-63 0 -107.5 43t-44.5 106t44.5 107.5t107.5 44.5zM254 711h1198v-199h-1198v199zM854 1155q62 0 107 -44.5t45 -106.5q0 -63 -44.5 -107.5t-107.5 -44.5t-107.5 44.5t-44.5 107.5t44.5 107t107.5 44z" />
<glyph unicode="&#xf8;" horiz-adv-x="934" d="M569 567l-204 -336q12 -22 32 -31.5t68 -9.5q62 0 83 23t21 90v264zM358 461l207 340q-6 32 -28.5 45.5t-71.5 13.5q-65 0 -86 -22.5t-21 -89.5v-287zM2 -57l113 172q-24 43 -34.5 108.5t-10.5 169.5v260q0 242 82 328t315 86q92 0 145 -8t97 -27l94 144l125 -84 l-107 -168q22 -42 32.5 -107.5t10.5 -163.5v-260q0 -240 -82 -325.5t-315 -85.5q-105 0 -152 7.5t-86 24.5l-98 -155z" />
<glyph unicode="&#xf9;" horiz-adv-x="944" d="M852 1049v-1049h-285v133q-45 -81 -104.5 -116t-149.5 -35q-123 0 -172 67t-49 252v748h305v-732q0 -56 16 -76t58 -20q43 0 59.5 20.5t16.5 75.5v732h305zM180 1536h258l197 -371h-142z" />
<glyph unicode="&#xfa;" horiz-adv-x="944" d="M852 1049v-1049h-285v133q-45 -81 -104.5 -116t-149.5 -35q-123 0 -172 67t-49 252v748h305v-732q0 -56 16 -76t58 -20q43 0 59.5 20.5t16.5 75.5v732h305zM766 1536l-313 -371h-142l197 371h258z" />
<glyph unicode="&#xfb;" horiz-adv-x="944" d="M852 1049v-1049h-285v133q-45 -81 -104.5 -116t-149.5 -35q-123 0 -172 67t-49 252v748h305v-732q0 -56 16 -76t58 -20q43 0 59.5 20.5t16.5 75.5v732h305zM158 1165l196 371h238l196 -371h-141l-174 219l-176 -219h-139z" />
<glyph unicode="&#xfc;" horiz-adv-x="944" d="M852 1049v-1049h-285v133q-45 -81 -104.5 -116t-149.5 -35q-123 0 -172 67t-49 252v748h305v-732q0 -56 16 -76t58 -20q43 0 59.5 20.5t16.5 75.5v732h305zM534 1225v245h226v-245h-226zM186 1225v245h226v-245h-226z" />
<glyph unicode="&#xfd;" horiz-adv-x="858" d="M172 0l-137 1049h303l94 -897l103 897h292l-145 -975q-42 -281 -114.5 -370t-225.5 -89q-36 0 -77 6.5t-91 20.5v213q25 -7 45 -10t35 -3q66 0 101.5 39t41.5 119h-225zM723 1536l-313 -371h-142l197 371h258z" />
<glyph unicode="&#xfe;" horiz-adv-x="952" d="M403 729v-412q0 -64 15.5 -84t60.5 -20q44 0 59 20t15 84v412q0 64 -15 84.5t-59 20.5q-45 0 -60.5 -21t-15.5 -84zM100 1511h303v-565q36 61 93 91t137 30q127 0 180 -76.5t53 -263.5v-405q0 -190 -51 -265t-174 -75q-85 0 -142.5 34t-95.5 109v-508h-303v1894z" />
<glyph unicode="&#xff;" horiz-adv-x="858" d="M172 0l-137 1049h303l94 -897l103 897h292l-145 -975q-42 -281 -114.5 -370t-225.5 -89q-36 0 -77 6.5t-91 20.5v213q25 -7 45 -10t35 -3q66 0 101.5 39t41.5 119h-225zM491 1225v245h226v-245h-226zM143 1225v245h226v-245h-226z" />
<glyph unicode="&#x131;" horiz-adv-x="494" d="M397 0h-303v1049h303v-1049z" />
<glyph unicode="&#x152;" horiz-adv-x="1370" d="M709 0v68q-33 -46 -92.5 -67t-155.5 -21q-208 0 -289.5 87.5t-81.5 331.5v686q0 244 81.5 331t293.5 87q86 0 146 -21t98 -65v68h575v-266h-307v-328h289v-256h-289v-369h336v-266h-604zM631 350v783q0 62 -18.5 83t-73.5 21q-56 0 -74.5 -21t-18.5 -83v-783 q0 -63 18.5 -83.5t74.5 -20.5q55 0 73.5 20.5t18.5 83.5z" />
<glyph unicode="&#x153;" horiz-adv-x="1389" d="M846 750v-95h192v95q0 62 -19 83t-77 21t-77 -20.5t-19 -83.5zM700 57q-28 -41 -81.5 -58t-167.5 -17q-224 0 -303.5 85.5t-79.5 325.5v260q0 241 80 327.5t303 86.5q104 0 160 -18.5t98 -61.5q35 43 92 61.5t157 18.5q209 0 287 -88t78 -326v-204h-477v-132 q0 -63 18.5 -83.5t75.5 -20.5q59 0 78 21t20 83v23h285v-70q0 -162 -80 -225t-295 -63q-88 0 -144 17.5t-104 57.5zM369 745v-423q0 -65 17.5 -87t70.5 -22t70.5 21.5t17.5 87.5v423q0 64 -16.5 83.5t-71.5 19.5t-71.5 -20.5t-16.5 -82.5z" />
<glyph unicode="&#x178;" horiz-adv-x="944" d="M301 0v481l-307 1004h350l143 -672l134 672h327l-301 -1004v-481h-346zM534 1663v245h226v-245h-226zM186 1663v245h226v-245h-226z" />
<glyph unicode="&#x2c6;" d="M197 1165l196 371h238l196 -371h-141l-174 219l-176 -219h-139z" />
<glyph unicode="&#x2dc;" d="M829 1487q-26 -124 -77 -183t-131 -59q-21 0 -39 2.5t-36 8.5l-87 24q-29 8 -41.5 10t-24.5 2q-34 0 -55 -20t-33 -64h-110q24 125 74 183.5t130 58.5q20 0 41.5 -3.5t44.5 -10.5l92 -27q10 -3 21.5 -4.5t34.5 -1.5q33 0 54 21t32 63h110z" />
<glyph unicode="&#x2000;" horiz-adv-x="987" />
<glyph unicode="&#x2001;" horiz-adv-x="1974" />
<glyph unicode="&#x2002;" horiz-adv-x="987" />
<glyph unicode="&#x2003;" horiz-adv-x="1974" />
<glyph unicode="&#x2004;" horiz-adv-x="658" />
<glyph unicode="&#x2005;" horiz-adv-x="493" />
<glyph unicode="&#x2006;" horiz-adv-x="329" />
<glyph unicode="&#x2007;" horiz-adv-x="329" />
<glyph unicode="&#x2008;" horiz-adv-x="246" />
<glyph unicode="&#x2009;" horiz-adv-x="394" />
<glyph unicode="&#x200a;" horiz-adv-x="109" />
<glyph unicode="&#x2010;" horiz-adv-x="692" d="M76 408v256h540v-256h-540z" />
<glyph unicode="&#x2011;" horiz-adv-x="692" d="M76 408v256h540v-256h-540z" />
<glyph unicode="&#x2012;" horiz-adv-x="692" d="M76 408v256h540v-256h-540z" />
<glyph unicode="&#x2013;" d="M0 436v199h1024v-199h-1024z" />
<glyph unicode="&#x2014;" horiz-adv-x="2048" d="M0 635h2048v-199h-2048v199z" />
<glyph unicode="&#x2018;" horiz-adv-x="512" d="M285 1184h118v-314h-294v336q0 146 72.5 220t217.5 77v-159q-60 -5 -88 -35.5t-28 -94.5q0 -5 1 -15t1 -15z" />
<glyph unicode="&#x2019;" horiz-adv-x="512" d="M225 1169h-116v316h292v-338q0 -146 -72.5 -220t-217.5 -77v160q60 4 88 35t28 94q0 5 -1 15t-1 15z" />
<glyph unicode="&#x201a;" horiz-adv-x="512" d="M225 12h-116v316h292v-338q0 -146 -72.5 -220t-217.5 -77v159q60 5 88 35.5t28 94.5q0 5 -1 15.5t-1 14.5z" />
<glyph unicode="&#x201c;" horiz-adv-x="901" d="M285 1184h116v-316h-292v338q0 146 72.5 220t217.5 77v-159q-60 -5 -88 -35.5t-28 -94.5q0 -5 1 -15t1 -15zM672 1184h119v-316h-293v338q0 147 71.5 220.5t216.5 76.5v-159q-60 -5 -88 -35.5t-28 -94.5q0 -5 1 -15t1 -15z" />
<glyph unicode="&#x201d;" horiz-adv-x="901" d="M614 1169h-116v316h293v-338q0 -146 -73 -220t-218 -77v159q60 5 88 36t28 94q0 5 -1 15t-1 15zM225 1169h-116v316h292v-338q0 -146 -72.5 -220t-217.5 -77v160q60 4 88 35t28 94q0 5 -1 15t-1 15z" />
<glyph unicode="&#x201e;" horiz-adv-x="901" d="M614 12h-116v316h293v-338q0 -146 -73 -220t-218 -77v159q60 5 88 35.5t28 94.5q0 5 -1 15.5t-1 14.5zM225 12h-116v316h292v-338q0 -146 -72.5 -220t-217.5 -77v159q60 5 88 35.5t28 94.5q0 5 -1 15.5t-1 14.5z" />
<glyph unicode="&#x2022;" horiz-adv-x="1208" d="M307 762q0 123 87 209t210 86q122 0 208.5 -86.5t86.5 -208.5t-87.5 -209.5t-209.5 -87.5q-123 0 -209 87t-86 210z" />
<glyph unicode="&#x2026;" horiz-adv-x="2048" d="M190 0v328h304v-328h-304zM872 0v328h304v-328h-304zM1556 0v328h304v-328h-304z" />
<glyph unicode="&#x202f;" horiz-adv-x="394" />
<glyph unicode="&#x2039;" horiz-adv-x="588" d="M227 201l-157 323l157 322h299l-151 -322l162 -323h-310z" />
<glyph unicode="&#x203a;" horiz-adv-x="588" d="M360 846l158 -322l-158 -323h-299l152 323l-162 322h309z" />
<glyph unicode="&#x205f;" horiz-adv-x="493" />
<glyph unicode="&#x2122;" horiz-adv-x="1706" d="M803 1462h196l127 -332l123 332h197v-547h-135v410l-154 -410h-61l-158 410v-410h-135v547zM207 1462h485v-112h-168v-435h-149v435h-168v112z" />
<glyph unicode="&#x25fc;" horiz-adv-x="1050" d="M0 1050h1050v-1050h-1050v1050z" />
</font>
</defs>
</svg>
