<svg viewBox="0 0 1875 315.59" xmlns="http://www.w3.org/2000/svg"><path d="M81.59 5.23H0v304.2h81.59c91.4 0 172.12-31.38 172.12-152.13C253.7 36.61 172.99 5.23 81.59 5.23zm11.5 256.26h-33.3V53.17h33.3c49.97 0 98.2 37.89 98.2 104.13 0 66.25-48.23 104.19-98.2 104.19zM1285.37 5.23h62.06l-116.74 304.2h-21.67l-116.1-304.2h64.03l66.42 160.73 62-160.73zm-734.96 217.5c0 66.65-52.06 98.67-111.92 91.99-32.42-3.66-51.19-13.48-77.05-30.91V222.1c20.51 11.33 50.55 32.31 73.68 36.49 25.39 4.53 52.94-3.61 52.94-31.09 0-57.99-130.69-33.99-130.69-134.64C357.37 24.87 409.09 0 461.56 0c25.62 0 48.58 9.82 68.57 27.25v58.28C509.56 72.7 487.42 59.1 464 56.13c-21.44-2.73-44.28 3.72-44.28 34.11 0 52.77 130.69 30.51 130.69 132.49zM277.59 5.23h59.79v304.2h-59.79V5.23zm835.48 151.26c0 91.93-59.85 158.23-154.22 158.23-95.65 0-156.95-64.97-156.95-158.23C801.9 63.16 864.08 0 958.86 0c93.55 0 154.21 64.5 154.21 156.49zm309.73 105h117.03v47.94H1363V5.23h175.95v47.94H1422.8v74.96h106.34v47.94H1422.8v85.42zm308.03-71.07c-5.98-13.48-15.4-30.1-31.61-31.38v-.87c38.06-5.23 61.54-34.86 61.54-70.6 0-84.55-76.41-82.34-140.51-82.34h-64.5v304.2h59.79V183.04h19.23c25.22 0 32.89 8.71 41.43 31.38l35.85 94.95h66.59l-47.81-118.95zm-95.65-55.32h-19.64V53.11h19.64c29.93 0 63.22 3.08 63.22 39.69.01 37.95-33.75 42.3-63.22 42.3zM786.79 279.04c-14.53 18.83-50.79 30.39-75.25 32.13-92.68 6.51-154.98-45.5-154.98-148.35 0-104.13 54.27-164.5 155.38-159.8 19.64.93 51.78 7.55 73.51 25.33v58.69c-25.34-15.8-51.6-27.02-73.86-27.95-61.48-2.5-92.68 37.07-92.68 99.37 0 61.88 29.11 96.69 92.74 94.31 24.41-.93 61.89-20.98 75.08-32.02v58.28h.06zm1062-275.03c-14.47 0-26.21 11.73-26.21 26.21s11.73 26.21 26.21 26.21c14.47 0 26.21-11.73 26.21-26.21s-11.73-26.21-26.21-26.21zm0 47.3c-10.98 0-19.82-8.83-19.82-21.09 0-12.32 8.83-21.15 19.82-21.15 10.98 0 19.82 8.89 19.82 21.15 0 12.2-8.89 21.09-19.82 21.09zm4.13-19.41c4.82-.41 7.73-2.91 7.73-7.96 0-6.28-3.78-8.72-10.92-8.72h-11.1v29.69h5.52V32.13h3.37l7.73 12.78h5.64l-7.97-13.01zm-8.72-3.95v-8.48h4.94c2.85 0 6.04.52 6.04 4.07 0 3.95-2.85 4.41-6.1 4.41h-4.88z"></path></svg>
