<svg data-name="Layer 1" xmlns="http://www.w3.org/2000/svg" viewBox="0 0 548.37 159.16"><path d="M70.57 28.57c-3.39-5.84-8.3-9.51-15.85-9.51-7.22 0-15.07 5.53-16.29 13.05-3.08 19.51 44.26 11.38 38.12 50.24C72.86 105.55 55.8 122 32.13 122 16.14 122 5.84 112.77 0 99.4l16.91-14.28C18.6 94 25.36 102 35 102c9.23 0 16.3-7.83 17.69-16.74 1.84-12-8.61-15.38-17.23-18.91-13.78-6.12-23.63-13.65-20.7-31.62C17.83 15.52 34.59 0 54.11 0 64.4 0 77.78 5.07 83.62 12.92L70.57 28.57m38.69 14.91l-6.45 40.86c-1.38 8.61-1.69 18.9 9.22 18.9S126 93 127.4 84.34l6.45-40.87h21.52l-7.07 44.39c-3.52 22-16.75 33.51-39.19 33.51s-32-11.53-28.44-33.5l7.07-44.39h21.52m103 37.63c1.53-10.14-3.39-21-14.45-21s-19.68 10.9-21.21 21 3.37 21.2 14.44 21.2 19.67-11 21.21-21.2zm-28.6-30.72A32.51 32.51 0 01205.94 41c21.37 0 31.36 20 28.13 39.79-3.22 20.58-19.06 40.56-41.35 40.56-7.68 0-15.21-3.39-18.6-9.53h-.3l-7.39 47.32h-21.51L163.2 43.48h21.51l-1.06 6.91m81.74.92h.31C271.07 44.71 278 41 286 41a22 22 0 018.6 1.86l-5.68 20a13.32 13.32 0 00-8.46-2.76c-14.92-.03-18.6 13.18-20.46 24.9l-5.37 34h-21.52l12-75.43h21.52l-1.23 7.83m74.08 20c.16-7.68-3.53-15.21-11.83-15.21-8.61 0-14.6 7.37-16.91 15.2zM308 84.64c-1.39 9.54.45 20.29 11.68 20.29 7.06 0 12.29-4.3 16.14-10.3l19.37 3.22A42.33 42.33 0 01317 121.37c-23.36 0-34.89-16.59-31.35-39.49S304.27 41 328.72 41c24.75 0 32.89 18.28 29.36 41l-.47 2.61H308m80.7-34.42h.3A26.82 26.82 0 01408.8 41c9.37 0 16.14 3.85 19.82 11.83A31.34 31.34 0 01452.45 41c19.21 0 21.67 14.45 19.06 30.89l-7.38 47h-21.52l6.3-39.64c1.08-7.37 3.85-21-6.76-21C430.47 58.23 428 74 426.78 81.88l-5.84 37h-21.53l6-38.25c1.24-7.38 4.61-22.43-6.61-22.43-12 0-14 15.66-15.21 23.65l-5.84 37h-21.52l12-75.43h21.53l-1.08 6.75M529 71.28c.17-7.68-3.52-15.21-11.83-15.21-8.6 0-14.61 7.37-16.9 15.2zm-31.5 13.36c-1.38 9.54.46 20.29 11.68 20.29 7.07 0 12.29-4.3 16.14-10.3l19.37 3.22a42.33 42.33 0 01-38.13 23.52c-23.36 0-34.89-16.59-31.35-39.49S493.79 41 518.23 41c24.74 0 32.89 18.28 29.36 41l-.47 2.61h-49.64"/></svg>