<svg data-name="Layer 1" xmlns="http://www.w3.org/2000/svg" viewBox="0 0 580 200"><path d="M580 200H0V0h580v200" fill="#ed1c24"/><path d="M86.85 48.77c-3.38-5.83-8.3-9.51-15.84-9.51-7.22 0-15.07 5.54-16.3 13.06C51.64 71.83 99 63.69 92.84 102.55c-3.69 23.21-20.75 39.65-44.42 39.65-16 0-26.29-9.23-32.13-22.59l16.91-14.29c1.69 8.91 8.45 16.9 18.13 16.9 9.22 0 16.3-7.83 17.68-16.74 1.85-12-8.61-15.37-17.22-18.9C38 80.43 28.12 72.9 31 54.94 34.11 35.73 50.87 20.2 70.39 20.2c10.3 0 23.67 5.08 29.52 12.92L86.85 48.77m38.7 14.91l-6.46 40.87c-1.38 8.6-1.69 18.89 9.23 18.89s14-10.29 15.37-18.89l6.45-40.88h21.52l-7.07 44.4c-3.52 22-16.75 33.5-39.19 33.5S93.42 130 97 108.08l7-44.4h21.52m103 37.63c1.53-10.13-3.4-21-14.45-21s-19.69 10.91-21.22 21 3.38 21.2 14.45 21.2 19.67-11.05 21.21-21.2zm-28.59-30.72a32.54 32.54 0 0122.29-9.36c21.38 0 31.37 20 28.14 39.78-3.23 20.59-19.06 40.56-41.35 40.56-7.69 0-15.21-3.38-18.6-9.52h-.31l-7.38 47.31h-21.51l18.28-115.68H201l-1.07 6.91m81.75.93h.3c5.38-6.61 12.3-10.3 20.3-10.3a22 22 0 018.6 1.85L305.2 83a13.38 13.38 0 00-8.46-2.76c-14.91 0-18.6 13.21-20.45 24.89l-5.38 34H249.4l12-75.44h21.53l-1.23 7.84m74.08 20c.15-7.68-3.53-15.21-11.83-15.21-8.61 0-14.61 7.37-16.91 15.2zm-31.5 13.36c-1.39 9.53.45 20.28 11.68 20.28 7.06 0 12.29-4.3 16.14-10.3l19.36 3.23a42.31 42.31 0 01-38.12 23.51C310 141.57 298.43 125 302 102.09s18.59-40.87 43-40.87c24.75 0 32.9 18.28 29.37 41l-.47 2.62h-49.65m80.69-34.42h.31a26.77 26.77 0 0119.84-9.22c9.37 0 16.13 3.84 19.82 11.83a31.32 31.32 0 0123.82-11.83c19.22 0 21.68 14.44 19.07 30.88l-7.38 47H458.9l6.3-39.65c1.07-7.37 3.84-21-6.76-21-11.69 0-14.14 15.82-15.37 23.66l-5.84 37H415.7l6-38.26c1.24-7.38 4.62-22.43-6.6-22.43-12 0-14 15.67-15.21 23.66l-5.84 37h-21.54l12-75.44H406l-1.08 6.76m140.33 21c.16-7.68-3.52-15.21-11.83-15.21-8.61 0-14.61 7.37-16.91 15.2zm-31.51 13.36c-1.37 9.53.47 20.28 11.69 20.28 7.07 0 12.29-4.3 16.13-10.3l19.44 3.34a42.31 42.31 0 01-38.12 23.51c-23.37 0-34.89-16.59-31.35-39.48s18.6-40.87 43-40.87c24.75 0 32.9 18.28 29.36 41l-.46 2.62h-49.67" fill="#fff"/></svg>